<?xml version="1.0" encoding="UTF-8"?> <svg xmlns="http://www.w3.org/2000/svg" xmlns:xlink="http://www.w3.org/1999/xlink" version="1.0" id="katman_1" x="0px" y="0px" viewBox="0 0 1074 813" style="enable-background:new 0 0 1074 813;" xml:space="preserve"> <style type="text/css"> .st0{fill:#4F3EC5;} </style> <path class="st0" d="M185.8,515.8v11.3h19v7.5h-19v18.4h-8.8v-45.4h30v8.1L185.8,515.8L185.8,515.8z"></path> <path class="st0" d="M232,516.5c9.4,0,16.8,5.8,16.8,18.9c0,11.5-6.4,18.5-16.8,18.5s-16.8-7-16.8-18.5 C215.2,522.4,222.6,516.5,232,516.5z M232,546c5.8,0,7.7-2.8,7.7-8.4v-4.8c0-5.6-2-8.4-7.7-8.4c-5.6,0-7.7,2.8-7.7,8.4v4.8 C224.3,543.3,226.2,546,232,546z"></path> <path class="st0" d="M275.5,516.5c9.4,0,16.8,5.8,16.8,18.9c0,11.5-6.4,18.5-16.8,18.5c-10.4,0-16.8-7-16.8-18.5 C258.7,522.4,266.1,516.5,275.5,516.5z M275.5,546c5.8,0,7.7-2.8,7.7-8.4v-4.8c0-5.6-2-8.4-7.7-8.4c-5.6,0-7.7,2.8-7.7,8.4v4.8 C267.8,543.3,269.7,546,275.5,546z"></path> <path class="st0" d="M334.9,502.5v50.6h-6.5l-2.2-5.1H326c-1.2,4-4.9,5.8-10.2,5.8c-8.1,0-13.6-5.8-13.6-18.5 c0-13.3,6.7-18.8,15.3-18.8c4,0,6.6,0.8,8.1,1.5h0.2v-15.6H334.9z M325.8,544.2v-19.5c-1.3-0.1-3.7-0.4-7-0.4 c-5.8,0-7.4,1.9-7.4,8.7v5.3c0,6,1.6,7.8,6.9,7.8C322.1,546,324.4,545,325.8,544.2z"></path> <path class="st0" d="M364.5,516.5c3.6,0,6.9,0.6,8.2,1.1v7.4l-0.3,0.3c-2.2-0.5-5.2-0.8-7.7-0.8c-6.8,0-9.1,2.2-9.1,9v3.3 c0,7,1.9,9,8.9,9c3.1,0,6.8-0.7,9-1.2l0.3,0.3v7.4c-2,0.8-5.5,1.6-10.5,1.6c-12.1,0-16.8-6.7-16.8-18.7 C346.4,522.2,352.8,516.5,364.5,516.5z"></path> <path class="st0" d="M398.9,516.5c9.4,0,16.8,5.8,16.8,18.9c0,11.5-6.4,18.5-16.8,18.5s-16.8-7-16.8-18.5 C382.1,522.4,389.5,516.5,398.9,516.5z M398.9,546c5.8,0,7.7-2.8,7.7-8.4v-4.8c0-5.6-2-8.4-7.7-8.4s-7.7,2.8-7.7,8.4v4.8 C391.2,543.3,393.1,546,398.9,546z"></path> <path class="st0" d="M457.3,517.3v35.8h-6.7l-2.1-5.2h-0.2c-1.3,4-4.9,6-10.1,6c-7.1,0-11.7-4-11.7-13.2v-23.4h9.1v24 c0,3.3,1.6,4.2,5.6,4.2c2.8,0,5.4-1,7-2.1v-26.1L457.3,517.3L457.3,517.3z"></path> <path class="st0" d="M491.6,517.2v8.3l-0.4,0.3H489c-5,0-7.7,0.9-9.6,1.9v25.4h-9.1v-35.8h6l2.6,5.3h0.3c1.6-3.9,4.9-5.8,9.3-5.8 C490,516.7,491.1,517,491.6,517.2z"></path> <path class="st0" d="M524.5,545.6v7.4c-1,0.3-4.4,0.9-7.5,0.9c-9.3,0-12.6-5.4-12.6-13.6v-15.3h-5v-7.7h5v-6.9l5.8-2.4h3.3v9.2h10.7 v7.7h-10.7v16.2c0,3.3,0.5,4.5,4.9,4.5c2.1,0,4.5-0.1,5.9-0.3L524.5,545.6z"></path> <path class="st0" d="M570.8,516.5c9.4,0,16.8,5.8,16.8,18.9c0,11.5-6.4,18.5-16.8,18.5c-10.4,0-16.8-7-16.8-18.5 C554.1,522.4,561.5,516.5,570.8,516.5z M570.8,546c5.8,0,7.7-2.8,7.7-8.4v-4.8c0-5.6-2-8.4-7.7-8.4c-5.6,0-7.7,2.8-7.7,8.4v4.8 C563.2,543.3,565.1,546,570.8,546z"></path> <path class="st0" d="M629.8,529.3v23.8h-9.1v-24.4c0-2.4-0.8-3.9-5.7-3.9c-2.5,0-5.4,0.7-6.9,1.6v26.6h-9.1v-35.8h6.5l2.4,5.3h0.3 c1.6-3.7,4.5-6,10.1-6C625.3,516.5,629.8,520.2,629.8,529.3z"></path> <path class="st0" d="M692.8,532.9v20.2h-6.4l-2.3-5h-0.2c-1.2,3.9-4.6,5.8-10.6,5.8c-7.6,0-11.6-4.3-11.6-11.1 c0-6.7,3.6-11.2,12.6-11.2c4.8,0,8.2,0.8,9.5,1h0.2V530c0-4.6-2.8-5.8-9.9-5.8c-4.1,0-8.9,0.8-10.2,1.1l-0.3-0.3v-7.3 c2.5-0.6,6.4-1.1,10.7-1.1C688.1,516.5,692.8,522.2,692.8,532.9z M684,544.8v-7.1h-9.8c-2.5,0-3.6,1.1-3.6,3.3v2 c0,2.6,1.1,3.6,4.9,3.6h0.9C679.7,546.6,682.5,545.7,684,544.8z"></path> <path class="st0" d="M736.1,529.3v23.8H727v-24.4c0-2.4-0.8-3.9-5.7-3.9c-2.5,0-5.4,0.7-6.9,1.6v26.6h-9.1v-35.8h6.5l2.4,5.3h0.3 c1.6-3.7,4.5-6,10.1-6C731.5,516.5,736.1,520.2,736.1,529.3z"></path> <path class="st0" d="M809.8,552.6l-0.3,0.5H800l-3.5-10.5H779l-3.6,10.5H766l-0.3-0.5l16.3-44.9h11.5L809.8,552.6z M794.1,535.6 l-0.4-1.1c-2-5.5-3.9-11.7-5.8-18.1h-0.5c-1.8,6.4-3.7,12.6-5.7,18.1l-0.4,1.1H794.1z"></path> <path class="st0" d="M852.1,534.6c0,13.1-5.7,19.3-14.1,19.3c-6.2,0-8.3-2.2-9.9-5.2l-0.3,0.1c0.3,1.6,0.7,5.2,0.7,7.5v11.9h-9.1 v-51h6.5l2.3,5.3h0.3c1.8-3.6,4.6-6,10.2-6C845.5,516.5,852.1,521.4,852.1,534.6z M842.9,532.1c0-6.6-2-7.9-7.2-7.9 c-2.3,0-5.6,0.7-7.2,1.6v18.7c0.8,0.5,3.4,1.6,7,1.6c5.5,0,7.4-2.3,7.4-8.9L842.9,532.1L842.9,532.1z"></path> <path class="st0" d="M896.2,534.6c0,13.1-5.7,19.3-14.1,19.3c-6.2,0-8.3-2.2-9.9-5.2l-0.3,0.1c0.3,1.6,0.7,5.2,0.7,7.5v11.9h-9.1 v-51h6.5l2.3,5.3h0.3c1.8-3.6,4.5-6,10.2-6C889.6,516.5,896.2,521.4,896.2,534.6z M887,532.1c0-6.6-2-7.9-7.2-7.9 c-2.3,0-5.6,0.7-7.2,1.6v18.7c0.8,0.5,3.4,1.6,7,1.6c5.5,0,7.4-2.3,7.4-8.9L887,532.1L887,532.1z"></path> <path class="st0" d="M346.1,418.3V462H334H170V244h164h12.1v61.7h-72.7v16.7h72.7v79.2c-6.6-0.4-13.3-1.2-20.1-2.3 c-29-4.8-48.7-14.6-48.9-14.7l-7.5,14.9c0.9,0.4,21.8,10.9,53.1,16.1C330.5,417,338.4,417.8,346.1,418.3z M466,322.4v-16.7H539V244 H362.8v157.9c24.5-0.7,47.6-6.4,68.9-17.3l7.5,14.9c-23.4,11.8-49.3,18.2-76.5,19V462H539V322.4H466z"></path> <path class="st0" d="M648,319.4v25.3h-75.9V244h75v25.3h-41.9v14.2h37.7v20.7h-37.7v15.2L648,319.4L648,319.4z"></path> <path class="st0" d="M740.8,302.2v42.5h-23.4l-6.3-10.7h-0.6c-3.2,8.4-9.5,12.4-22.9,12.4c-17.2,0-25-9.8-25-24.7s7.2-25.2,28-25.2 c9.8,0,16.7,1.7,19.3,2.7h0.5V295c0-6.2-3.5-8.3-20.4-8.3c-9.2,0-19.8,1.4-22.6,2l-0.8-0.8v-22c6.2-1.2,16.6-2.4,26.8-2.4 C729.5,263.5,740.8,277.3,740.8,302.2z M710.3,323.6v-10.9h-12.7c-3.8,0-5.1,1.8-5.1,4.7v3.8c0,3.5,1.5,5.1,6.3,5.1h1.5 C704.4,326.4,708.2,325.1,710.3,323.6z"></path> <path class="st0" d="M816,318.8v25.6c-2.6,0.6-11.9,2-19.9,2c-25.6,0-33.3-11.5-33.3-32.1v-23.2h-10v-25.9h10v-14.6l20.5-6.5h10.6 v21.1h21.7V291h-21.7v20.7c0,5,1.5,6.9,8.8,6.9c4.5,0,10-0.1,12.8-0.4L816,318.8z"></path> <path class="st0" d="M620.3,359.9c12.2,0,22.3,1.2,27,2v23.8l-0.6,0.6c-5.7-0.5-15.8-1.1-24.4-1.1c-16.1,0-19,2-19,6.5v1.1 c0,3.5,1.1,4.8,11.2,6.3l11.9,2c17.7,2.6,26.8,11.2,26.8,27.8c0,22.6-10.4,34.5-51.1,34.5c-15.4,0-26.7-1.4-30.9-2.1v-24.6l0.6-0.5 c8.6,1.1,18.8,1.8,29.3,1.8c15.8,0,18.7-2,18.7-7.2v-1.2c0-3.9-0.9-5.4-14-7.4l-12.4-2c-14.6-2.1-23.5-10.1-23.5-27.3 C569.8,372.1,581.4,359.9,620.3,359.9z"></path> <path class="st0" d="M745.1,382.3V462h-24l-5.7-12.2h-0.8c-3.2,8.9-10.9,13.9-23.1,13.9c-16.1,0-25.9-9.5-25.9-29.3v-52h31.2v47 c0,4.7,2.1,6.2,7.5,6.2c3.9,0,7.4-1.1,9.7-2.4v-50.8L745.1,382.3L745.1,382.3z"></path> <path class="st0" d="M816,382.3v29.1l-0.9,0.9c-1.8-0.1-3.5-0.1-5.1-0.1c-7.8,0-14.2,0.8-18.8,1.8v48H760v-79.6h22.5l6.3,12.4h0.6 c2.9-9.2,10.1-13.3,20.1-13.3C812.4,381.4,814.9,381.9,816,382.3z"></path> <path class="st0" d="M857,429.4v3.3c0,6.3,3,8.8,18,8.8c12.1,0,21.4-1.1,25.3-1.8l0.6,0.6v20.4c-5.3,1.4-16.3,3-29.1,3 c-34.8,0-45.1-13.7-45.1-41c0-29,13.9-41.9,41.5-41.9c23.5,0,35.4,10.7,35.4,32.4v16.3L857,429.4L857,429.4z M857,411.6v1.7h18.2 v-5.4c0-5-1.5-6.9-8-6.9h-1.1C858.7,400.9,857,404.2,857,411.6z"></path> <path class="st0" d="M880.4,294.3c-1.3,0-2.6,0-3.9,0c-0.6-0.1-1.3-0.2-1.9-0.3c-6.9-1.2-12.5-4.6-16.6-10.2 c-4-5.5-5.4-11.8-4.4-18.5c1.1-6.9,4.5-12.5,10.2-16.6c5.8-4.2,12.3-5.5,19.4-4.2c5.7,1.1,10.4,3.8,14.2,8.2 c2.9,3.3,4.8,7.2,5.7,11.5c0.2,1,0.3,2,0.5,3c0,1.3,0,2.6,0,3.9c0,0.1-0.1,0.3-0.1,0.5c-0.1,1-0.2,2-0.4,2.9 c-1.2,5.4-3.9,10-8.1,13.6c-3.4,2.9-7.2,4.9-11.6,5.7C882.4,294,881.4,294.1,880.4,294.3z M878.5,247.9 c-11.8,0.1-21.2,9.4-21.3,21.1c-0.1,11.9,9.4,21.3,21.1,21.4c12,0.1,21.4-9.4,21.4-21.1C899.8,257.4,890.3,248,878.5,247.9z"></path> <path class="st0" d="M884.9,272.6c1.1,2.7,2.2,5.4,3.2,8.1c-1.3,0-2.4,0-3.6,0c-0.2,0-0.4-0.3-0.5-0.5c-0.9-2.2-1.8-4.5-2.7-6.7 c-0.1-0.4-0.3-0.5-0.7-0.5c-2,0-4,0-6,0c0,2.6,0,5.1,0,7.7c-1.3,0-2.6,0-3.9,0c0-7.7,0-15.4,0-23.1c0.2,0,0.4,0,0.6,0 c3.6,0,7.2,0,10.9,0c4.5-0.1,8.3,3.5,7.8,8.5C889.8,269.2,888,271.4,884.9,272.6z M874.6,269.2c2.7,0,5.4,0.1,8,0 c2.1-0.1,3.6-1.8,3.6-3.9c0-2.1-1.7-3.8-3.8-3.8c-2,0-3.9,0-5.9,0c-0.6,0-1.2,0-1.9,0C874.6,264,874.6,266.5,874.6,269.2z"></path> </svg> 